<svg t="1732935762430" class="icon" viewBox="0 0 1024 1024" version="1.1" xmlns="http://www.w3.org/2000/svg" p-id="10221" width="200" height="200"><path d="M0 512a512 512 0 1 0 1024 0A512 512 0 1 0 0 512z" fill="#7D4DDA" p-id="10222" data-spm-anchor-id="a313x.search_index.0.i13.765d3a81kICilL" class="selected"></path><path d="M565.124 729.308l56.29 108.557 52.267-60.312h84.435l-56.29-112.568c-36.178 32.167-84.434 52.268-136.702 64.323z m-289.48 48.245l84.433-4.01 52.268 64.322 56.29-108.557c-52.268-7.999-96.49-32.156-136.702-60.3z m482.472-341.749c0-132.679-108.557-241.224-241.237-241.224S275.643 303.137 275.643 435.804 384.2 677.041 516.88 677.041s241.237-108.557 241.237-241.237z m-132.68-36.178l-48.245 44.223v4.022l16.078 76.39c0 4.023 0 4.023-4.022 4.023l-72.368-36.19h-4.022l-68.345 36.19c-4.022 0-4.022 0-4.022-4.023l16.077-76.39v-4.022l-48.245-44.223v-7.998l68.357-12.056h4.022l32.156-72.379c0-4.022 4.022-4.022 7.999 0l32.213 72.333h4.01l68.357 12.056c4.023 0 4.023 4.022 0 7.999z" fill="#FFFFFF" p-id="10223"></path></svg>